<svg width="512" height="512" viewBox="0 0 16 16" xmlns="http://www.w3.org/2000/svg" shape-rendering="crispEdges">
  <rect x="7" y="2" width="2" height="13" fill="#333" />
  <rect x="6" y="12" width="4" height="3" fill="#333" />
  <rect x="7" y="3" width="2" height="11" fill="#8B4513" />
  <rect x="6" y="13" width="4" height="1" fill="#8B4513" />

  <rect x="5" y="3" width="6" height="3" fill="#333" />
  <rect x="2" y="5" width="3" height="2" fill="#333" />
  <rect x="11" y="5" width="3" height="2" fill="#333" />
  <rect x="1" y="6" width="1" height="2" fill="#333" />
  <rect x="14" y="6" width="1" height="2" fill="#333" />

  <rect x="5" y="4" width="6" height="2" fill="#B3B3B3" />
  <rect x="2" y="6" width="12" height="1" fill="#E6E6E6" />
  <rect x="3" y="6" width="2" height="1" fill="#FFFFFF" />
  <rect x="11" y="6" width="2" height="1" fill="#FFFFFF" />

  <rect x="2" y="7" width="1" height="1" fill="#E6E6E6" />
  <rect x="13" y="7" width="1" height="1" fill="#E6E6E6" />
  <rect x="3" y="8" width="1" height="1" fill="#E6E6E6" />
  <rect x="12" y="8" width="1" height="1" fill="#E6E6E6" />
  <rect x="4" y="9" width="1" height="1" fill="#E6E6E6" />
  <rect x="11" y="9" width="1" height="1" fill="#E6E6E6" />
  <rect x="5" y="10" width="6" height="1" fill="#E6E6E6" />

  <rect x="7" y="10" width="2" height="2" fill="#333" /> <rect x="7" y="10" width="2" height="1" fill="#FFD700" /> <rect x="7" y="11" width="2" height="1" fill="#C5A000" /> <rect x="7" y="1" width="2" height="1" fill="#B3B3B3" />
</svg>
